<svg width="48" height="32" fill="none" xmlns="http://www.w3.org/2000/svg"><path d="M0 3a3 3 0 0 1 3-3h42a3 3 0 0 1 3 3v26a3 3 0 0 1-3 3H3a3 3 0 0 1-3-3V3z" fill="red"/><path fill-rule="evenodd" clip-rule="evenodd" d="M45 1H3a2 2 0 0 0-2 2v26a2 2 0 0 0 2 2h42a2 2 0 0 0 2-2V3a2 2 0 0 0-2-2zM3 0a3 3 0 0 0-3 3v26a3 3 0 0 0 3 3h42a3 3 0 0 0 3-3V3a3 3 0 0 0-3-3H3z" fill="#000" fill-opacity=".1"/><path d="M24.046 10.3a1.06 1.06 0 0 0 .36-.574s.055-.201 0-.429a1.06 1.06 0 0 0-.36-.574.99.99 0 0 0-.623-.223.964.964 0 0 0-.632.216c-.18.145-.307.351-.358.583a.996.996 0 0 0 0 .426c.052.231.178.437.358.583.18.145.404.221.632.215a.988.988 0 0 0 .623-.223zM13.794 12.023c-.044 1.163-.523 2.15-1.297 2.99a9.265 9.265 0 0 1-3.236 2.299 2.34 2.34 0 0 1-.958.196c-.552-.01-.905-.338-.945-.885-.055-.799.662-1.85 1.42-2.079a.824.824 0 0 1 .54.016c.419.159.54.533.252.876-.215.253-.475.48-.71.722a2.174 2.174 0 0 0-.26.31c-.073.11-.165.242-.056.372.108.13.252.07.378.025.3-.109.585-.254.85-.43.983-.662 1.838-1.448 2.384-2.52.196-.38.316-.79.21-1.228-.126-.506-.529-.74-1.037-.596-.7.192-1.31.564-1.905.962-.596.399-1.16.8-1.859.987-.646.172-1.253-.003-1.469-.48-.182-.408-.082-.812.102-1.201.368-.777.984-1.304 1.688-1.75.757-.484 1.558-.899 2.463-1.047 1.168-.19 2.223-.019 2.99.992.322.42.483.94.455 1.469zM21.317 14.647v1.77a.4.4 0 0 1-.135.33c-.902.836-2.624 1.14-3.727.633-1.29-.582-1.707-2.276-.803-3.343.473-.559 1.136-.73 1.844-.769.31-.016.62-.009.929 0 .17 0 .24-.055.252-.234.027-.642-.228-.94-.87-.963a3.14 3.14 0 0 0-1.505.37c-.19.094-.278.067-.349-.126a4.63 4.63 0 0 0-.252-.554c-.083-.155-.015-.24.112-.301.896-.44 1.83-.666 2.834-.506.962.157 1.656.98 1.672 2.007.005.564-.002 1.126-.002 1.686zm-1.648.69v-.26c0-.788-.096-.861-.884-.698-.433.09-.757.319-.862.759-.105.44-.057.859.322 1.158.378.3.815.227 1.238.082a.266.266 0 0 0 .188-.29c-.009-.252-.002-.499-.002-.75zM36.556 14.453c-.494 0-.987.008-1.48 0-.205 0-.268.072-.265.272-.001.29.035.578.109.858a1.237 1.237 0 0 0 1.366.913c.492-.041.97-.19 1.398-.438.157-.096.253-.103.325.097.07.19.158.373.264.546a.172.172 0 0 1-.053.268c-1.04.694-2.659.95-3.74.29a2.656 2.656 0 0 1-1.167-1.604c-.362-1.265-.252-2.488.433-3.629.89-1.48 3.295-1.362 4.02-.158.452.75.526 1.581.546 2.425 0 .18-.135.16-.253.16-.5.002-1 0-1.503 0zm-.816-.994h.233c.704 0 .815-.186.505-.84a1.124 1.124 0 0 0-.069-.126.725.725 0 0 0-.966-.243c-.292.152-.594.694-.57 1.012.012.152.105.194.236.194l.631.003zM29.81 12.728c0-.976.008-1.953 0-2.928 0-.233.076-.329.3-.359.363-.05.724-.116 1.085-.182.204-.036.28.038.274.247-.01.404 0 .81 0 1.216 0 .223.083.322.308.31.174-.009.348 0 .522 0 .175 0 .244.071.236.242-.01.28.077.612-.045.824-.138.24-.495.07-.757.095-.18.018-.265.084-.264.266 0 1.072-.012 2.15.006 3.218.009.538.252.758.817.818.193.019.252.09.24.268v.204c0 .579 0 .612-.573.608a2.677 2.677 0 0 1-1.217-.244c-.733-.37-.924-1.012-.93-1.762-.007-.947-.002-1.895-.002-2.84zM40.953 12.633v2.93c0 .633.169.853.785.924.23.027.276.12.259.311-.008.086 0 .175 0 .26 0 .492 0 .507-.49.527a2.615 2.615 0 0 1-1.244-.224c-.581-.27-.863-.771-.907-1.391-.044-.62-.022-1.2-.023-1.799V9.79c0-.206.038-.321.266-.353.355-.047.705-.126 1.057-.187.226-.043.31.035.308.273-.016 1.041-.01 2.076-.011 3.11zM25.48 14.811v-2.403a.553.553 0 0 1 .204-.451 3.769 3.769 0 0 1 3.178-.99c.03 0 .058.006.086.01.408.077.432.116.27.49-.087.204-.144.44-.288.593-.144.153-.4-.006-.608.01a2.79 2.79 0 0 0-.631.11c-.515.164-.565.243-.565.784v4.234c0 .242-.072.328-.313.316a13.025 13.025 0 0 0-1.044 0c-.22.01-.306-.053-.301-.292.02-.806.011-1.609.011-2.41zM24.166 14.295c0 .967-.007 1.934 0 2.9 0 .246-.078.326-.315.316a17.897 17.897 0 0 0-1.075 0c-.171 0-.238-.061-.238-.238v-5.744c0-.176.057-.273.237-.297.364-.05.729-.097 1.088-.164.241-.046.305.041.302.271-.004.983.001 1.967.001 2.956zM16.183 22.644v-1.218c0-.14.008-.282.17-.331.163-.05.228.062.288.178.078.146.14.099.24.01a1.14 1.14 0 0 1 .783-.274c.286.011.431.13.635.331.135.142.203.136.338 0 .2-.176.575-.288.84-.318.264-.03.532.02.766.148a.789.789 0 0 1 .388.704c.01.696 0 1.391 0 2.088 0 .163-.061.26-.235.253-.175-.007-.274-.074-.274-.26v-1.712c0-.435-.155-.688-.452-.743a.786.786 0 0 0-.895.518 1.883 1.883 0 0 0-.126.68c.007.426 0 .85 0 1.276 0 .177-.086.253-.253.245-.166-.008-.252-.07-.252-.253V22.4a1.758 1.758 0 0 0-.06-.487.633.633 0 0 0-1.025-.287 1.127 1.127 0 0 0-.388.873V23.919a.262.262 0 0 1-.267.284c-.195 0-.238-.127-.238-.291.01-.42.017-.843.017-1.268zM29.776 22.813h-.842c-.197 0-.277.051-.231.275a.914.914 0 0 0 1.505.535c.051-.044.1-.09.146-.14.116-.127.261-.216.403-.087.141.129.044.284-.05.415-.545.758-1.94.62-2.374-.26a1.928 1.928 0 0 1 .028-1.839c.3-.56.873-.787 1.595-.664.505.085.94.714 1.038 1.302.048.24-.067.451-.289.459-.31.011-.62 0-.929 0v.004zm-.2-.448h.695c.161 0 .2-.08.175-.221a.886.886 0 0 0-.847-.652.882.882 0 0 0-.854.641c-.028.16.025.237.195.232.212-.005.424 0 .636 0zM24.256 22.666c-.006.612-.139 1.091-.672 1.415-.827.506-2.13.172-2.272-1.036-.054-.483-.074-.971.218-1.391.41-.6.943-.721 1.69-.567.585.12.973.693 1.02 1.326 0 0 .016.201.016.253zm-2.435.212c.088.466.352.893.745.956.48.076.883-.126 1.05-.567.157-.4.152-.847-.014-1.244-.163-.394-.454-.561-.895-.541-.403.018-.657.224-.804.632-.065.168-.138.47-.082.764zM24.873 22.64v-1.158c0-.16 0-.325.188-.38.188-.054.253.065.315.215.072.175.16.068.24 0 .348-.325.77-.341 1.195-.24a.857.857 0 0 1 .688.863c.025.675.012 1.352.017 2.023 0 .188-.107.253-.276.253-.17 0-.228-.105-.228-.264v-1.42a2.67 2.67 0 0 0-.013-.318c-.057-.449-.196-.647-.484-.704a.845.845 0 0 0-.944.455 1.801 1.801 0 0 0-.187.868v1.042c0 .166-.021.328-.23.333-.21.005-.28-.127-.28-.324v-1.246.002zM31.885 25.187c.106-.253.204-.523.34-.776a.665.665 0 0 0 .08-.316.887.887 0 0 0-.08-.316c-.317-.745-.616-1.498-.932-2.244-.072-.172-.107-.329.094-.412.2-.084.313.076.378.224.253.584.484 1.176.724 1.77.034.085.083.118.146.118.063 0 .124-.043.155-.115.253-.586.498-1.173.758-1.757.065-.148.126-.329.352-.253a.22.22 0 0 1 .157.319c-.564 1.3-1.13 2.6-1.696 3.9a.254.254 0 0 1-.337.151c-.121-.048-.178-.199-.139-.293z" fill="#fff"/></svg>