<svg width="48" height="32" viewBox="0 0 48 32" fill="none" xmlns="http://www.w3.org/2000/svg">
<g clip-path="url(#clip0_2362_1168)">
<path d="M44 0H4C1.79086 0 0 1.79086 0 4V28C0 30.2091 1.79086 32 4 32H44C46.2091 32 48 30.2091 48 28V4C48 1.79086 46.2091 0 44 0Z" fill="#EFEFEF"/>
<path fill-rule="evenodd" clip-rule="evenodd" d="M44 1H4C2.34315 1 1 2.34315 1 4V28C1 29.6569 2.34315 31 4 31H44C45.6569 31 47 29.6569 47 28V4C47 2.34315 45.6569 1 44 1ZM4 0C1.79086 0 0 1.79086 0 4V28C0 30.2091 1.79086 32 4 32H44C46.2091 32 48 30.2091 48 28V4C48 1.79086 46.2091 0 44 0H4Z" fill="black" fill-opacity="0.2"/>
<g clip-path="url(#clip1_2362_1168)">
<path d="M11.3896 11.2233V18.6526H12.9975V11.2233H11.3896ZM4 18.6526H5.48387L5.89082 17.2481H8.44665L8.83375 18.6526H10.7345L8.57072 11.4764H6.41191L4 18.6526ZM6.22829 16.0769L7.1861 12.7717H7.22581L8.12903 16.0769H6.22829ZM19.3251 18.7221C20.7593 18.7221 22.0546 17.665 22.0546 15.7792C22.0546 14.0918 21.1166 13.0844 19.9603 13.0844C19.3697 13.0844 18.9132 13.3077 18.3921 13.7345V13.1985H16.7841V20.3846H18.3921V18.603C18.6948 18.6824 19.0074 18.7271 19.3251 18.7221ZM25.871 18.6526H27.4789L27.2854 17.2878V15.0099C27.2854 13.7692 26.5509 13.0844 25.2605 13.0844C24.4367 13.0844 23.866 13.2283 22.8288 13.5409L23.1117 14.7916C24.0596 14.3648 24.4764 14.1811 24.9132 14.1811C25.4442 14.1811 25.6774 14.5583 25.6774 15.139V15.1787C23.8362 15.5261 23.2655 15.7196 22.9082 16.072C22.6452 16.335 22.531 16.7122 22.531 17.1489C22.531 18.196 23.3449 18.7568 24.1092 18.7568C24.6799 18.7568 25.1365 18.5434 25.7568 18.0769L25.871 18.6526ZM14.0943 13.1985V18.6526H15.7022V13.1985H14.0943ZM33.0124 13.2084L33.0223 13.1985H31.5087L30.5509 16.5137H30.5012L29.3995 13.1985H27.598L29.7668 18.6725L28.8635 20.34V20.3797H30.2779L33.0124 13.2084ZM19.3449 14.34C19.9454 14.34 20.4218 14.8164 20.4218 15.8337C20.4218 17.134 19.7221 17.7146 18.938 17.7146C18.7494 17.7146 18.5658 17.6898 18.3871 17.6352V14.6824C18.7246 14.4491 19.0025 14.335 19.3449 14.34ZM24.0893 16.995C24.0893 16.8412 24.1191 16.6873 24.2432 16.5682C24.4367 16.3747 24.8139 16.2308 25.6774 16.0273V17.3275C25.2506 17.5608 25.0074 17.6551 24.7196 17.6551C24.3325 17.6551 24.0893 17.402 24.0893 16.995Z" fill="#3E3A39"/>
<path d="M13.9752 11.8834C13.9752 12.4144 14.3623 12.7667 14.9032 12.7667C15.4441 12.7667 15.8312 12.4094 15.8312 11.8834C15.8263 11.3672 15.4392 11 14.8982 11C14.3573 11 13.9752 11.3672 13.9752 11.8834Z" fill="#1677FF"/>
<path d="M44 16.6973H40.3474C39.3449 16.6973 38.5261 15.8834 38.5261 14.8759H43.1166C43.603 14.8759 43.995 15.268 43.995 15.7543V16.6973H44Z" fill="#1677FF"/>
<path d="M34.8784 14.8759H37.6427V16.6973H35.7568C35.2705 16.6973 34.8784 16.3052 34.8784 15.8189V14.8759Z" fill="#00B6FF"/>
<path d="M40.3474 12.1017V16.6923C39.3449 16.6923 38.5261 15.8784 38.5261 14.8759V11.2233H39.469C39.9553 11.2233 40.3474 11.6204 40.3474 12.1017Z" fill="#1677FF"/>
<path d="M40.3474 17.5856V20.3449H39.4045C38.9181 20.3449 38.5261 19.9528 38.5261 19.4665V17.5856H40.3474Z" fill="#00B6FF"/>
</g>
</g>
<defs>
<clipPath id="clip0_2362_1168">
<rect width="48" height="32" fill="white"/>
</clipPath>
<clipPath id="clip1_2362_1168">
<rect width="40" height="9.2804" fill="white" transform="translate(4 11)"/>
</clipPath>
</defs>
</svg>
