<svg width="48" height="32" fill="none" xmlns="http://www.w3.org/2000/svg"><path d="M0 4a4 4 0 0 1 4-4h40a4 4 0 0 1 4 4v24a4 4 0 0 1-4 4H4a4 4 0 0 1-4-4V4z" fill="#F7F7F7"/><path fill-rule="evenodd" clip-rule="evenodd" d="M8.167 18.206a3.694 3.694 0 0 1 5.967-2.913l1.95-2.494a6.861 6.861 0 1 0 0 10.816l-1.95-2.496a3.694 3.694 0 0 1-5.967-2.913zm14.777 1.32a1.847 1.847 0 1 1-3.694 0 1.847 1.847 0 0 1 3.694 0zm3.167 0a5.014 5.014 0 1 1-10.028 0 5.014 5.014 0 0 1 10.028 0zm13.195-4.486h2.638v9.5h-2.639v-9.5zm-8.445 0h.528a3.167 3.167 0 0 1 0 6.333h-.528V15.04zm-3.166 9.5V11.873h3.694a6.333 6.333 0 1 1 0 12.667h-3.694z" fill="#000"/><path fill-rule="evenodd" clip-rule="evenodd" d="M19.55 18.517a1.847 1.847 0 1 0 3.166.117c.262-3.373 1.986-6.707 4.603-8.358 1.389-.876 3.063-1.307 5.016-1.022 1.834.269 4 1.184 6.443 3.109v.038a2.111 2.111 0 1 0 2.52-2.072c-2.968-2.467-5.827-3.816-8.505-4.208-2.723-.398-5.156.21-7.164 1.477-3.656 2.307-5.785 6.696-6.08 10.92z" fill="#9B9E9F"/><path fill-rule="evenodd" clip-rule="evenodd" d="M44 1H4a3 3 0 0 0-3 3v24a3 3 0 0 0 3 3h40a3 3 0 0 0 3-3V4a3 3 0 0 0-3-3zM4 0a4 4 0 0 0-4 4v24a4 4 0 0 0 4 4h40a4 4 0 0 0 4-4V4a4 4 0 0 0-4-4H4z" fill="#000" fill-opacity=".1"/></svg>