<svg width="48" height="32" fill="none" xmlns="http://www.w3.org/2000/svg"><path d="M0 4a4 4 0 0 1 4-4h40a4 4 0 0 1 4 4v24a4 4 0 0 1-4 4H4a4 4 0 0 1-4-4V4z" fill="#ECA42C"/><path fill="#fff" d="M0 7h48v18H0z"/><path d="M0 8.5h48v15H0v-15z" fill="#EC1B23"/><path fill-rule="evenodd" clip-rule="evenodd" d="M44 1H4a3 3 0 0 0-3 3v24a3 3 0 0 0 3 3h40a3 3 0 0 0 3-3V4a3 3 0 0 0-3-3zM4 0a4 4 0 0 0-4 4v24a4 4 0 0 0 4 4h40a4 4 0 0 0 4-4V4a4 4 0 0 0-4-4H4z" fill="#000" fill-opacity=".1"/><path fill-rule="evenodd" clip-rule="evenodd" d="M33.484 20.917a1.25 1.25 0 1 1-1.898 1.627L27.8 18.128 24.222 22.5a1.253 1.253 0 0 1-1.943-1.581l3.844-4.749L23.405 13l1.887-1.64 2.43 2.836 2.183-2.696c1.5-2 4-4.5 4.5-4.5l3.5 1c-2.549.439-3.704 2.032-4.963 3.767-.175.243-.353.488-.537.733l-2.997 3.663 4.076 4.754zM13.05 9.326a1.25 1.25 0 0 0-.129 1.757l4.076 4.754L14 19.5c-1.5 2-3 4-5.5 4.5l3.5 1c.5 0 3-2.5 4.5-4.5l2.182-2.696 2.431 2.836L23 19l-2.718-3.171 3.844-4.749A1.253 1.253 0 0 0 22.183 9.5l-3.578 4.373-3.786-4.416a1.25 1.25 0 0 0-1.769-.13zM10.5 16a4 4 0 1 1-8 0 4 4 0 0 1 8 0zm2.5 0a6.5 6.5 0 1 1-13 0 6.5 6.5 0 0 1 13 0zm31 0a4 4 0 1 1-8 0 4 4 0 0 1 8 0zm2.5 0a6.5 6.5 0 1 1-13 0 6.5 6.5 0 0 1 13 0z" fill="#fff"/></svg>