<svg width="48" height="32" fill="none" xmlns="http://www.w3.org/2000/svg"><path d="M0 4a4 4 0 0 1 4-4h40a4 4 0 0 1 4 4v24a4 4 0 0 1-4 4H4a4 4 0 0 1-4-4V4z" fill="#32BCAD"/><path d="M30.717 22.36a3.504 3.504 0 0 1-2.493-1.032l-3.6-3.6a.684.684 0 0 0-.946 0l-3.613 3.613a3.504 3.504 0 0 1-2.493 1.032h-.71l4.56 4.56a3.646 3.646 0 0 0 5.156 0l4.572-4.573h-.433zM17.572 9.627c.942 0 1.827.367 2.493 1.032l3.613 3.614a.67.67 0 0 0 .946 0l3.6-3.6a3.504 3.504 0 0 1 2.493-1.033h.433l-4.572-4.572a3.646 3.646 0 0 0-5.156 0l-4.56 4.559h.71z" fill="#fff"/><path d="m34.932 13.422-2.763-2.763a.526.526 0 0 1-.196.04h-1.256c-.65 0-1.285.263-1.744.722l-3.6 3.6c-.337.337-.78.505-1.222.505-.442 0-.885-.168-1.221-.505l-3.614-3.613a2.482 2.482 0 0 0-1.744-.723h-1.544a.524.524 0 0 1-.186-.037l-2.774 2.774a3.646 3.646 0 0 0 0 5.156l2.774 2.774a.525.525 0 0 1 .185-.037h1.545c.65 0 1.285-.264 1.744-.723l3.613-3.613c.653-.652 1.792-.653 2.444 0l3.6 3.6c.459.46 1.094.723 1.744.723h1.256c.07 0 .135.015.196.04l2.763-2.764a3.646 3.646 0 0 0 0-5.156z" fill="#fff"/><path fill-rule="evenodd" clip-rule="evenodd" d="M44 1H4a3 3 0 0 0-3 3v24a3 3 0 0 0 3 3h40a3 3 0 0 0 3-3V4a3 3 0 0 0-3-3zM4 0a4 4 0 0 0-4 4v24a4 4 0 0 0 4 4h40a4 4 0 0 0 4-4V4a4 4 0 0 0-4-4H4z" fill="#000" fill-opacity=".1"/></svg>