<svg width="48" height="32" fill="none" xmlns="http://www.w3.org/2000/svg"><path d="M0 4a4 4 0 0 1 4-4h40a4 4 0 0 1 4 4v24a4 4 0 0 1-4 4H4a4 4 0 0 1-4-4V4z" fill="#F7F7F7"/><path fill-rule="evenodd" clip-rule="evenodd" d="M27.345 10.225H37.782v2.408h-6.423v2.007h6.021v2.409h-6.02v2.408h6.422v3.212H27.345V10.225zm15.655 0h-4.014v4.014h1.606v-2.208L43 15.041v-4.816z" fill="#F19700"/><path fill-rule="evenodd" clip-rule="evenodd" d="M10.209 22.893c1.098 0 2.038-.164 2.82-.492.782-.333 1.38-.805 1.794-1.414.414-.61.62-1.328.62-2.156v-.009c0-.667-.137-1.233-.413-1.699-.276-.471-.699-.86-1.268-1.164-.57-.305-1.297-.54-2.182-.707l-1.276-.242c-.667-.126-1.153-.287-1.458-.482-.304-.196-.457-.46-.457-.794v-.008c0-.236.07-.446.207-.63.144-.19.35-.34.621-.448.27-.11.598-.164.983-.164.38 0 .716.054 1.01.164.292.109.528.261.706.457.179.195.285.43.32.707l.008.095h2.94l-.008-.181c-.034-.754-.253-1.409-.655-1.967-.397-.557-.96-.989-1.69-1.293-.73-.31-1.616-.466-2.657-.466-.948 0-1.796.164-2.544.492-.741.321-1.325.779-1.75 1.37-.426.587-.639 1.28-.639 2.08v.008c0 .954.32 1.733.958 2.337.644.598 1.58 1.012 2.811 1.242l1.276.25c.73.138 1.248.305 1.553.5.304.19.457.46.457.81v.01c0 .258-.084.485-.25.68-.167.196-.403.351-.707.466-.3.11-.659.164-1.078.164a3.45 3.45 0 0 1-1.096-.164 2.311 2.311 0 0 1-.81-.466 1.366 1.366 0 0 1-.397-.707l-.017-.086H5l.009.155c.051.794.29 1.47.715 2.027.432.558 1.027.986 1.786 1.285.764.293 1.664.44 2.699.44zm9.911-12.668h-3.613V22.669h3.613v-4.817h3.01a3.813 3.813 0 0 0 0-7.627h-3.01zm0 4.817h3.01a1.003 1.003 0 1 0 0-2.007h-3.01v2.007zM43 22.669h-4.014v-4.015h1.606v2.208L43 17.852v4.817z" fill="#002972"/><path fill-rule="evenodd" clip-rule="evenodd" d="M44 1H4a3 3 0 0 0-3 3v24a3 3 0 0 0 3 3h40a3 3 0 0 0 3-3V4a3 3 0 0 0-3-3zM4 0a4 4 0 0 0-4 4v24a4 4 0 0 0 4 4h40a4 4 0 0 0 4-4V4a4 4 0 0 0-4-4H4z" fill="#000" fill-opacity=".1"/></svg>