<?xml version="1.0" encoding="utf-8"?>
<!-- Generator: Adobe Illustrator 27.4.0, SVG Export Plug-In . SVG Version: 6.00 Build 0)  -->
<svg version="1.1" id="Layer_1" xmlns="http://www.w3.org/2000/svg" xmlns:xlink="http://www.w3.org/1999/xlink" x="0px" y="0px"
	 viewBox="0 0 848.1 198.1" style="enable-background:new 0 0 848.1 198.1;" xml:space="preserve">
<g>
	<path d="M640.3,74.1c-10.5-10.7-25.4-16.3-43-16.3c-9.4,0-18,1.6-25.7,4.7c-6.9,2.8-12.9,6.8-17.9,11.9c-5-5.1-10.9-9.1-17.8-11.9
		c-7.6-3.1-16.2-4.7-25.5-4.7c-17.7,0-32.7,5.6-43.3,16.3c-10.7,10.7-16.3,25.7-16.3,43.5v80.4h31.6v-80.2c0-8.3,2.6-15.8,7.4-21.1
		c5-5.6,12.2-8.6,20.6-8.6c7.8,0,14.5,2.7,19.4,7.7c4.6,4.8,7.5,11.6,8,19.2c0,0.9,0,1.8,0,2.6v80.4h31.8v-80.4c0-0.8,0-1.6,0-2.6
		c0.6-7.7,3.4-14.4,8.1-19.2c5-5,11.8-7.7,19.8-7.7c8.2,0,15.2,3,20.2,8.6c4.7,5.3,7.4,12.8,7.4,21.1v80.2h31.6v-80.4
		C656.4,99.8,650.9,84.8,640.3,74.1z"/>
	<rect x="315" y="0" width="31.7" height="198.1"/>
	<path d="M414.4,0v41.8h-31.6V0H414.4z M414.4,61.4v136.7h-31.6V61.4H414.4z"/>
	<path d="M724.4,0v41.8h-31.6V0H724.4z M724.4,61.4v136.7h-31.6V61.4H724.4z"/>
	<path d="M848,92.2h-55.5v63.3c0,7.4,4.4,11.8,12.4,11.8H848v30.8h-49.5c-23.7,0-37.7-13.8-37.7-37.2V0h31.6v61.4H848V92.2z"/>
	<path d="M0,0h31.6v73.9c0,20.1,12.7,36,33.6,36c21.5,0,34.1-16,34.1-36V0h31.6v74.1c0,40.2-25.9,66-65.7,66
		c-39.6,0-65.2-25.9-65.2-66V0z"/>
	<path d="M279.1,198.1h-31.6v-74c0-20.1-12.7-36-33.6-36c-21.5,0-34.1,16-34.1,36v74h-31.6v-74.3c0-40.2,25.9-66,65.7-66
		c39.6,0,65.2,25.9,65.2,66V198.1z"/>
</g>
</svg>
